<svg width="16" height="16" viewBox="0 0 16 16" fill="none" xmlns="http://www.w3.org/2000/svg">
  <path d="M8.04923 3.13739C8.50253 2.95606 9.01573 3.04179 9.3844 3.35264L9.46682 3.42836L12.5716 6.53319C12.9169 6.87846 13.0402 7.38388 12.8998 7.84518L12.8627 7.95076L11.3083 11.8365C11.1312 12.2794 10.7279 12.5921 10.2539 12.6521L6.91588 13.0686C6.83005 13.079 6.73978 13.0914 6.64594 13.1056L6.35449 13.1532C6.3044 13.1619 6.25363 13.1709 6.20227 13.1803L5.72724 13.273L5.40152 13.3419L4.91201 13.4518L4.28407 13.6016L3.26425 13.8619L2.83968 13.9763C2.63227 14.0335 2.37891 13.9912 2.19387 13.8061C2.0294 13.6417 1.97765 13.4232 2.00842 13.231L2.03068 13.1352L2.22482 12.4044L2.39836 11.7159L2.54817 11.088L2.65806 10.5985L2.72699 10.2728L2.81965 9.79773L2.87181 9.49741L2.9143 9.21608L3.34786 5.74615C3.40335 5.30855 3.67397 4.9313 4.06362 4.73652L4.16345 4.69169L8.04923 3.13739ZM8.5374 4.35778L4.65176 5.91203L4.26792 8.98214C4.25703 9.0713 4.24644 9.15822 4.23625 9.24229C4.18552 9.66082 4.09242 10.1675 3.9837 10.6835L3.87077 11.1998L6.03175 9.03882C5.91464 8.60027 6.02809 8.11302 6.37212 7.76898C6.88545 7.25564 7.71767 7.25564 8.23095 7.76898C8.74429 8.28225 8.74429 9.11453 8.23095 9.62781C7.88697 9.97186 7.39972 10.0853 6.96123 9.96817L4.80015 12.1293L5.05797 12.0719L5.57331 11.9634C5.91381 11.8949 6.24432 11.8353 6.54149 11.7925L10.088 11.3482L11.6422 7.46259L8.5374 4.35778ZM10.0898 2.19249C10.3267 1.95558 10.6995 1.93736 10.9573 2.13782L11.0193 2.19249L13.8075 4.98076C14.0642 5.23742 14.0642 5.65353 13.8075 5.91019C13.5706 6.1471 13.1978 6.16532 12.94 5.96486L12.8781 5.91019L10.0898 3.12191C9.83315 2.86526 9.83315 2.44914 10.0898 2.19249Z" fill="black" />
</svg>
