<svg width="16" height="16" viewBox="0 0 16 16" fill="none" xmlns="http://www.w3.org/2000/svg">
  <path d="M8.72 10.75L8.72 13.75C8.72035 14.0814 8.84689 14.3991 9.07186 14.6335C9.29683 14.8678 9.60185 14.9996 9.92 15L12.8 15C13.1182 14.9996 13.4232 14.8678 13.6481 14.6335C13.8731 14.3991 13.9996 14.0814 14 13.75L14 10.75C13.9996 10.4186 13.8731 10.1009 13.6481 9.86652C13.4232 9.63218 13.1182 9.50037 12.8 9.5L12.08 9.5L12.08 9.25C12.0794 8.65347 11.8516 8.08156 11.4466 7.65975C11.0417 7.23794 10.4927 7.00067 9.92 7L8.72 7L8.72 6L9.2 6C9.51815 5.99963 9.82317 5.86782 10.0481 5.63348C10.2731 5.39914 10.3996 5.08141 10.4 4.75L10.4 2.25C10.3996 1.91859 10.2731 1.60086 10.0481 1.36652C9.82317 1.13218 9.51815 1.00037 9.2 1L6.8 1C6.48185 1.00037 6.17683 1.13218 5.95184 1.36652C5.72691 1.60086 5.60038 1.91859 5.6 2.25L5.6 4.75C5.60038 5.08141 5.72691 5.39914 5.95184 5.63348C6.17683 5.86782 6.48185 5.99963 6.8 6L7.28 6L7.28 7L6.08 7C5.50736 7.00067 4.95834 7.23794 4.55341 7.65975C4.14838 8.08156 3.92067 8.65347 3.92 9.25L3.92 9.5L3.2 9.5C2.88186 9.50037 2.57686 9.63218 2.35184 9.86652C2.12691 10.1009 2.00038 10.4186 2 10.75L2 13.75C2.00038 14.0814 2.12691 14.3991 2.35184 14.6335C2.57686 14.8678 2.88186 14.9996 3.2 15L6.08 15C6.39815 14.9996 6.70317 14.8678 6.92814 14.6335C7.15311 14.3991 7.27964 14.0814 7.28 13.75L7.28 10.75C7.27964 10.4186 7.15311 10.1009 6.92814 9.86652C6.70317 9.63218 6.39815 9.50037 6.08 9.5L5.36 9.5L5.36 9.25C5.36019 9.05116 5.43613 8.86052 5.5711 8.71992C5.70608 8.57931 5.88915 8.50022 6.08 8.5L9.92 8.5C10.1109 8.50022 10.2939 8.57931 10.4289 8.71992C10.5639 8.86052 10.6398 9.05116 10.64 9.25L10.64 9.5L9.92 9.5C9.60185 9.50037 9.29683 9.63218 9.07186 9.86652C8.84689 10.1009 8.72035 10.4186 8.72 10.75ZM7.04 4.5L7.04 2.5L8.96 2.5L8.96 4.5L7.04 4.5ZM5.84 11L5.84 13.5L3.44 13.5L3.44 11L5.84 11ZM12.56 11L12.56 13.5L10.16 13.5L10.16 11L12.56 11Z" fill="black" />
</svg>
