<svg width="16" height="16" viewBox="0 0 16 16" fill="none" xmlns="http://www.w3.org/2000/svg">
  <path d="M5.0025 12.7545V11.257C5.0025 11.1824 4.97918 11.1217 4.93253 11.0751C4.88589 11.0284 4.82525 11.0051 4.75062 11.0051H2.24588C2.18058 11.0051 2.1246 11.0284 2.07796 11.0751C2.03132 11.1217 2.00333 11.1824 1.994 11.257V12.7545C1.994 12.8291 2.02199 12.8897 2.07796 12.9364C2.13393 12.983 2.18991 13.0064 2.24588 13.0064H4.75062C4.82525 13.0064 4.88589 12.983 4.93253 12.9364C4.97918 12.8897 5.0025 12.8291 5.0025 12.7545ZM5.0025 9.75954V8.24809C5.0025 8.18278 4.97918 8.1268 4.93253 8.08015C4.88589 8.0335 4.82525 8.01018 4.75062 8.01018H2.24588C2.18058 8.01018 2.1246 8.0335 2.07796 8.08015C2.03132 8.1268 2.00333 8.18278 1.994 8.24809V9.75954C1.994 9.82485 2.02199 9.88083 2.07796 9.92748C2.13393 9.97413 2.18991 9.99746 2.24588 9.99746H4.75062C4.82525 9.99746 4.88589 9.97413 4.93253 9.92748C4.97918 9.88083 5.0025 9.82485 5.0025 9.75954ZM8.9905 12.7545V11.257C8.9905 11.1824 8.96718 11.1217 8.92054 11.0751C8.8739 11.0284 8.81792 11.0051 8.75262 11.0051H6.24788C6.17325 11.0051 6.11261 11.0284 6.06597 11.0751C6.01932 11.1217 5.996 11.1824 5.996 11.257V12.7545C5.996 12.8291 6.01932 12.8897 6.06597 12.9364C6.11261 12.983 6.17325 13.0064 6.24788 13.0064H8.75262C8.81792 13.0064 8.8739 12.983 8.92054 12.9364C8.96718 12.8897 8.9905 12.8291 8.9905 12.7545ZM5.0025 6.75064V5.25318C5.0025 5.17854 4.97918 5.1179 4.93253 5.07125C4.88589 5.0246 4.82525 5.00127 4.75062 5.00127H2.24588C2.18058 5.00127 2.1246 5.0246 2.07796 5.07125C2.03132 5.1179 2.00333 5.17854 1.994 5.25318V6.75064C1.994 6.82528 2.02199 6.88592 2.07796 6.93257C2.13393 6.97922 2.18991 7.00254 2.24588 7.00254H4.75062C4.82525 7.00254 4.88589 6.97922 4.93253 6.93257C4.97918 6.88592 5.0025 6.82528 5.0025 6.75064ZM8.9905 9.75954V8.24809C8.9905 8.18278 8.96718 8.1268 8.92054 8.08015C8.8739 8.0335 8.81792 8.01018 8.75262 8.01018H6.24788C6.17325 8.01018 6.11261 8.0335 6.06597 8.08015C6.01932 8.1268 5.996 8.18278 5.996 8.24809V9.75954C5.996 9.82485 6.01932 9.88083 6.06597 9.92748C6.11261 9.97413 6.17325 9.99746 6.24788 9.99746H8.75262C8.81792 9.99746 8.8739 9.97413 8.92054 9.92748C8.96718 9.88083 8.9905 9.82485 8.9905 9.75954ZM12.9925 12.7545V11.257C12.9925 11.1824 12.9692 11.1217 12.9225 11.0751C12.8759 11.0284 12.8153 11.0051 12.7406 11.0051H10.2499C10.1752 11.0051 10.1146 11.0284 10.068 11.0751C10.0213 11.1217 9.998 11.1824 9.998 11.257V12.7545C9.998 12.8291 10.0213 12.8897 10.068 12.9364C10.1146 12.983 10.1752 13.0064 10.2499 13.0064H12.7406C12.8153 13.0064 12.8759 12.983 12.9225 12.9364C12.9692 12.8897 12.9925 12.8291 12.9925 12.7545ZM8.9905 6.75064V5.25318C8.9905 5.17854 8.96718 5.1179 8.92054 5.07125C8.8739 5.0246 8.81792 5.00127 8.75262 5.00127H6.24788C6.17325 5.00127 6.11261 5.0246 6.06597 5.07125C6.01932 5.1179 5.996 5.17854 5.996 5.25318V6.75064C5.996 6.82528 6.01932 6.88592 6.06597 6.93257C6.11261 6.97922 6.17325 7.00254 6.24788 7.00254H8.75262C8.81792 7.00254 8.8739 6.97922 8.92054 6.93257C8.96718 6.88592 8.9905 6.82528 8.9905 6.75064ZM12.9925 9.75954V8.24809C12.9925 8.18278 12.9692 8.1268 12.9225 8.08015C12.8759 8.0335 12.8153 8.01018 12.7406 8.01018H10.2499C10.1752 8.01018 10.1146 8.0335 10.068 8.08015C10.0213 8.1268 9.998 8.18278 9.998 8.24809V9.75954C9.998 9.82485 10.0213 9.88083 10.068 9.92748C10.1146 9.97413 10.1752 9.99746 10.2499 9.99746H12.7406C12.8153 9.99746 12.8759 9.97413 12.9225 9.92748C12.9692 9.88083 12.9925 9.82485 12.9925 9.75954ZM12.9925 6.75064V5.25318C12.9925 5.17854 12.9692 5.1179 12.9225 5.07125C12.8759 5.0246 12.8153 5.00127 12.7406 5.00127H10.2499C10.1752 5.00127 10.1146 5.0246 10.068 5.07125C10.0213 5.1179 9.998 5.17854 9.998 5.25318V6.75064C9.998 6.82528 10.0213 6.88592 10.068 6.93257C10.1146 6.97922 10.1752 7.00254 10.2499 7.00254H12.7406C12.8153 7.00254 12.8759 6.97922 12.9225 6.93257C12.9692 6.88592 12.9925 6.82528 12.9925 6.75064ZM14 4.25954V12.7545C14 13.0997 13.8741 13.3936 13.6222 13.6361C13.3703 13.8787 13.0765 14 12.7406 14H2.24588C1.91004 14 1.61619 13.8787 1.36432 13.6361C1.11244 13.3936 0.991171 13.0997 1.0005 12.7545V4.25954C1.0005 3.91433 1.12177 3.62044 1.36432 3.37786C1.60686 3.13528 1.90072 3.00933 2.24588 3H12.7406C13.0858 3 13.3796 3.12595 13.6222 3.37786C13.8647 3.62977 13.9907 3.92366 14 4.25954Z" fill="black"/>
</svg>
