<svg width="16" height="16" viewBox="0 0 16 16" fill="none" xmlns="http://www.w3.org/2000/svg">
  <path d="M4.36445 4.85907C4.19885 4.71798 3.98552 4.6499 3.77112 4.66973C3.55672 4.68956 3.35869 4.79568 3.22036 4.96489L1.18923 7.4653C1.06699 7.61496 1 7.80398 1 7.99923C1 8.19449 1.06699 8.38351 1.18923 8.53317L3.22036 11.0336C3.2885 11.1183 3.37228 11.1883 3.4669 11.2397C3.56151 11.291 3.66509 11.3227 3.77167 11.3329C3.87826 11.343 3.98575 11.3315 4.08797 11.2989C4.19018 11.2663 4.28511 11.2133 4.36729 11.1429C4.44947 11.0725 4.51729 10.9862 4.56683 10.8889C4.61638 10.7915 4.64668 10.6851 4.656 10.5757C4.66532 10.4663 4.65346 10.3561 4.62112 10.2514C4.58878 10.1467 4.53659 10.0496 4.46755 9.9657L2.86967 7.99926L4.46759 6.03279C4.60558 5.86309 4.67223 5.64413 4.65289 5.42403C4.63355 5.20393 4.5298 5.00072 4.36445 4.85907Z" fill="black"/>
  <path d="M8.47112 3.01469C8.26007 2.9737 8.04177 3.01929 7.86314 3.14166C7.68452 3.26404 7.55982 3.45342 7.51586 3.66911L5.89096 12.0038C5.86988 12.1111 5.86968 12.2217 5.89036 12.3291C5.91104 12.4365 5.9522 12.5387 6.01147 12.6297C6.07074 12.7208 6.14696 12.7989 6.23575 12.8596C6.32454 12.9204 6.42415 12.9626 6.52887 12.9837C6.58159 12.9948 6.6353 13.0003 6.68913 13C6.87677 12.9997 7.05852 12.9327 7.20346 12.8105C7.3484 12.6882 7.44757 12.5182 7.48412 12.3294L9.10903 3.99467C9.13011 3.88734 9.13032 3.77679 9.10964 3.66937C9.08897 3.56195 9.04781 3.45978 8.98854 3.36872C8.92927 3.27766 8.85305 3.19952 8.76425 3.13876C8.67546 3.078 8.57584 3.03584 8.47112 3.01469Z" fill="black"/>
  <path d="M13.8108 7.46529L11.7796 4.96488C11.7115 4.88018 11.6277 4.81014 11.5331 4.75878C11.4385 4.70742 11.3349 4.67575 11.2283 4.66559C11.1217 4.65543 11.0143 4.66699 10.912 4.69959C10.8098 4.73219 10.7149 4.7852 10.6327 4.85557C10.5505 4.92593 10.4827 5.01227 10.4332 5.10961C10.3836 5.20695 10.3533 5.31338 10.344 5.42278C10.3347 5.53217 10.3465 5.64238 10.3789 5.74706C10.4112 5.85175 10.4634 5.94884 10.5325 6.03276L12.1303 7.99925L10.5324 9.96572C10.4634 10.0496 10.4112 10.1467 10.3788 10.2514C10.3465 10.3561 10.3346 10.4663 10.344 10.5757C10.3533 10.6851 10.3836 10.7915 10.4331 10.8889C10.4827 10.9862 10.5505 11.0725 10.6327 11.1429C10.7149 11.2133 10.8098 11.2663 10.912 11.2989C11.0142 11.3315 11.1217 11.343 11.2283 11.3329C11.3349 11.3227 11.4385 11.2911 11.5331 11.2397C11.6277 11.1883 11.7115 11.1183 11.7796 11.0336L13.8108 8.53316C13.933 8.3835 14 8.19448 14 7.99923C14 7.80397 13.933 7.61495 13.8108 7.46529Z" fill="black"/>
</svg>
