<svg width="16" height="16" viewBox="0 0 16 16" fill="none" xmlns="http://www.w3.org/2000/svg">
  <g clip-path="url(#clip0_71_134)">
    <path d="M9.53675 14.064C10.4568 13.8595 11.1495 13.5228 11.6148 13.0543C12.08 12.5858 12.3125 11.9668 12.3125 11.1973V9.97576C12.3125 8.98126 12.8635 8.48401 13.9655 8.48401V7.59401C12.8635 7.59401 12.3125 7.09876 12.3125 6.10851V4.83151C12.3023 4.08276 12.0695 3.47801 11.6148 3.01751C11.1598 2.55726 10.4673 2.22276 9.53675 2.01401L9.24025 2.72001C10.3268 2.99401 10.87 3.70826 10.87 4.86226V6.10226C10.87 7.03126 11.304 7.67776 12.1723 8.04201C11.304 8.41051 10.87 9.06301 10.87 10.0003V11.2648C10.8545 12.3903 10.3113 13.088 9.24025 13.358L9.53675 14.064ZM6.42675 14.0578C5.507 13.8533 4.81475 13.5168 4.34975 13.0485C3.88475 12.5803 3.65225 11.9615 3.65225 11.1925V9.97151C3.65225 8.97776 3.1015 8.48076 2 8.48076V7.59101C3.1015 7.59101 3.65225 7.09626 3.65225 6.10626V4.83001C3.6625 4.08151 3.895 3.47726 4.34975 3.01701C4.80425 2.55701 5.4965 2.22251 6.42675 2.01401L6.72275 2.71951C5.637 2.99351 5.094 3.70726 5.094 4.86076V6.10026C5.094 7.02876 4.66025 7.67501 3.7925 8.03901C4.66025 8.40701 5.094 9.05951 5.094 9.99626V11.26C5.1095 12.385 5.6525 13.0823 6.72275 13.3523L6.42675 14.0578Z" fill="black"/>
  </g>
  <defs>
    <clipPath id="clip0_71_134">
      <rect width="16" height="16" fill="white"/>
    </clipPath>
  </defs>
</svg>
