<svg fill="#4ebcf2" width="16" height="16" viewBox="0 0 16 16" xmlns="http://www.w3.org/2000/svg">
<path d="M14 3V4.25C14 5.35157 11.3125 6.25 8 6.25C4.68749 6.25 2 5.35157 2 4.25V3C2 1.89843 4.68749 1 8 1C11.3125 1 14 1.89843 14 3ZM14 5.8125V8.625C14 9.72657 11.3125 10.625 8 10.625C4.68749 10.625 2 9.72657 2 8.625V5.8125C3.28906 6.71875 5.64843 7.14064 8 7.14064C10.3516 7.14064 12.7109 6.71875 14 5.8125ZM14 10.1875V13C14 14.1016 11.3125 15 8 15C4.68749 15 2 14.1016 2 13V10.1875C3.28906 11.0938 5.64843 11.5156 8 11.5156C10.3516 11.5156 12.7109 11.0938 14 10.1875Z" />
</svg>
